<mxfile host="app.diagrams.net" modified="2023-03-31T03:09:02.978Z" agent="Mozilla/5.0 (Macintosh; Intel Mac OS X 10_15_7) AppleWebKit/537.36 (KHTML, like Gecko) Chrome/111.0.0.0 Safari/537.36" etag="AuUFmqactFBLHuTo0a0I" version="21.1.2" type="github">
  <diagram name="페이지-1" id="e8R5-ymzMCLi9W8DaYWQ">
    <mxGraphModel dx="1793" dy="964" grid="1" gridSize="10" guides="1" tooltips="1" connect="1" arrows="1" fold="1" page="1" pageScale="1" pageWidth="827" pageHeight="1169" math="0" shadow="0">
      <root>
        <mxCell id="0" />
        <mxCell id="1" parent="0" />
        <mxCell id="ZJOxMzp84xy1mtmdKOzL-3" value="Public" style="swimlane;whiteSpace=wrap;html=1;fillColor=#dae8fc;strokeColor=#6c8ebf;" vertex="1" parent="1">
          <mxGeometry x="80" y="160" width="680" height="240" as="geometry" />
        </mxCell>
        <mxCell id="ZJOxMzp84xy1mtmdKOzL-24" value="S3" style="rounded=1;whiteSpace=wrap;html=1;" vertex="1" parent="ZJOxMzp84xy1mtmdKOzL-3">
          <mxGeometry x="520" y="40" width="120" height="180" as="geometry" />
        </mxCell>
        <mxCell id="ZJOxMzp84xy1mtmdKOzL-6" value="Private" style="swimlane;whiteSpace=wrap;html=1;fillColor=#e1d5e7;strokeColor=#9673a6;" vertex="1" parent="1">
          <mxGeometry x="80" y="432" width="680" height="240" as="geometry" />
        </mxCell>
        <mxCell id="ZJOxMzp84xy1mtmdKOzL-23" style="edgeStyle=orthogonalEdgeStyle;rounded=0;orthogonalLoop=1;jettySize=auto;html=1;exitX=0;exitY=0.5;exitDx=0;exitDy=0;" edge="1" parent="ZJOxMzp84xy1mtmdKOzL-6" source="ZJOxMzp84xy1mtmdKOzL-8">
          <mxGeometry relative="1" as="geometry">
            <mxPoint x="240" y="79.75" as="targetPoint" />
          </mxGeometry>
        </mxCell>
        <mxCell id="ZJOxMzp84xy1mtmdKOzL-8" value="HyperBaseAndroid&lt;br&gt;(Module)" style="rounded=0;whiteSpace=wrap;html=1;fillColor=#d5e8d4;strokeColor=#82b366;fontSize=16;" vertex="1" parent="ZJOxMzp84xy1mtmdKOzL-6">
          <mxGeometry x="240" y="40" width="200" height="80" as="geometry" />
        </mxCell>
        <mxCell id="ZJOxMzp84xy1mtmdKOzL-10" value="TestApp" style="rounded=0;whiteSpace=wrap;html=1;fontSize=16;fillColor=#f5f5f5;fontColor=#333333;strokeColor=#666666;" vertex="1" parent="ZJOxMzp84xy1mtmdKOzL-6">
          <mxGeometry x="240" y="120" width="200" height="40" as="geometry" />
        </mxCell>
        <mxCell id="ZJOxMzp84xy1mtmdKOzL-22" value="UploadToS3" style="rounded=0;whiteSpace=wrap;html=1;fillColor=#d5e8d4;strokeColor=#82b366;fontSize=16;" vertex="1" parent="ZJOxMzp84xy1mtmdKOzL-6">
          <mxGeometry x="480" y="40" width="160" height="80" as="geometry" />
        </mxCell>
        <mxCell id="ZJOxMzp84xy1mtmdKOzL-11" value="Firebase" style="swimlane;whiteSpace=wrap;html=1;fillColor=#fff2cc;strokeColor=#d6b656;" vertex="1" parent="1">
          <mxGeometry x="80" y="712" width="320" height="240" as="geometry" />
        </mxCell>
        <mxCell id="ZJOxMzp84xy1mtmdKOzL-19" value="AppDistributions" style="rounded=0;whiteSpace=wrap;html=1;fontSize=16;fillColor=#fff2cc;strokeColor=#d6b656;" vertex="1" parent="ZJOxMzp84xy1mtmdKOzL-11">
          <mxGeometry x="80" y="72" width="160" height="40" as="geometry" />
        </mxCell>
        <mxCell id="ZJOxMzp84xy1mtmdKOzL-14" value="Local" style="swimlane;whiteSpace=wrap;html=1;fillColor=#f5f5f5;strokeColor=#666666;fontColor=#333333;" vertex="1" parent="1">
          <mxGeometry x="440" y="712" width="320" height="240" as="geometry" />
        </mxCell>
        <mxCell id="ZJOxMzp84xy1mtmdKOzL-25" value="" style="ellipse;whiteSpace=wrap;html=1;" vertex="1" parent="1">
          <mxGeometry x="350" y="20" width="120" height="80" as="geometry" />
        </mxCell>
      </root>
    </mxGraphModel>
  </diagram>
</mxfile>
